<svg width="225" height="166" viewBox="0 0 225 166" fill="none" xmlns="http://www.w3.org/2000/svg">
<mask id="mask0_8_37" style="mask-type:alpha" maskUnits="userSpaceOnUse" x="0" y="0" width="225" height="166">
<path fill-rule="evenodd" clip-rule="evenodd" d="M110.924 0.00183645C101.666 0.0443839 92.8249 0.825333 85.0456 2.18684C62.1287 6.19128 57.9679 14.5729 57.9679 30.0301V50.4443H112.123V57.249H37.6438C21.9047 57.249 8.12312 66.6058 3.81241 84.4056C-1.15993 104.808 -1.38048 117.54 3.81241 138.843C7.66198 154.701 16.8553 166 32.5943 166H51.2142V141.528C51.2142 131.141 56.5527 121.473 64.6813 115.265C64.5943 114.088 64.5501 112.899 64.5501 111.7C64.5501 85.3497 85.911 63.9888 112.261 63.9888C134.587 63.9888 153.332 79.3239 158.536 100.036C163.298 95.1189 166.216 88.4037 166.216 81.0344V30.0301C166.216 15.514 153.834 4.60953 139.138 2.18684C129.835 0.655141 120.182 -0.0407116 110.924 0.00183645ZM57.9679 142.215C57.9679 134.888 61.0233 128.094 65.9269 123.125C71.0467 143.958 89.8492 159.411 112.261 159.411C138.611 159.411 159.972 138.05 159.972 111.7C159.972 110.323 159.914 108.96 159.799 107.612C167.71 101.337 172.969 91.6714 172.969 81.0344V57.249H193.293C209.053 57.249 216.481 68.9084 220.371 84.4056C225.785 105.929 226.025 122.065 220.371 138.843C214.898 155.142 209.032 166 193.293 166H57.9679V142.215ZM91.7992 26.6589C91.7992 21.0127 87.2311 16.4206 81.6372 16.4206C76.0233 16.4206 71.4752 21.0127 71.4752 26.6589C71.4752 32.2852 76.0233 36.8348 81.6372 36.8348C87.2311 36.8348 91.7992 32.2852 91.7992 26.6589Z" fill="#D9D9D9"/>
<path d="M71.2877 111.288C71.2864 111.425 71.2857 111.562 71.2857 111.7C71.2857 114.033 71.4807 116.321 71.8554 118.547C75.1142 137.918 91.9642 152.675 112.261 152.675C134.881 152.675 153.22 134.346 153.236 111.73L153.236 111.7C153.236 109.295 153.029 106.939 152.632 104.648C149.289 85.3783 132.486 70.7244 112.261 70.7244C89.7682 70.7244 71.5084 88.8478 71.2877 111.288Z" fill="#D9D9D9"/>
</mask>
<g mask="url(#mask0_8_37)">
<path d="M113.017 -18.3572C58.1142 -18.3572 42.0574 -18.3011 38.9362 -18.0445C27.6693 -17.1165 20.6583 -15.3588 13.0203 -11.5908C7.134 -8.6947 2.49171 -5.33758 -2.08989 -0.631611C-10.4339 7.95058 -15.4908 18.509 -17.3215 31.0596C-18.2115 37.1525 -18.4704 38.3951 -18.523 69.5171C-18.5432 79.891 -18.523 93.544 -18.523 111.857C-18.523 166.212 -18.4623 182.106 -18.1993 185.192C-17.2891 196.055 -15.5697 202.89 -11.9287 210.366C-4.97034 224.676 8.31935 235.419 23.9757 239.427C29.3968 240.81 35.3842 241.572 43.0708 241.932C46.3275 242.073 79.5213 242.173 112.735 242.173C145.95 242.173 179.164 242.133 182.339 241.973C191.24 241.558 196.408 240.87 202.122 239.407C217.88 235.379 230.927 224.796 238.027 210.285C241.597 202.99 243.407 195.895 244.227 185.599C244.405 183.354 244.479 147.564 244.479 111.823C244.479 76.075 244.398 40.3512 244.22 38.1065C243.391 27.6443 241.581 20.6094 237.895 13.1736C234.871 7.08675 231.513 2.54111 226.638 -2.10674C217.938 -10.3402 207.299 -15.3508 194.62 -17.1626C188.477 -18.0425 187.253 -18.3031 155.819 -18.3572H113.017Z" fill="url(#paint0_radial_8_37)"/>
<path d="M113.017 -18.3572C58.1142 -18.3572 42.0574 -18.3011 38.9362 -18.0445C27.6693 -17.1165 20.6583 -15.3588 13.0203 -11.5908C7.134 -8.6947 2.49171 -5.33758 -2.08989 -0.631611C-10.4339 7.95058 -15.4908 18.509 -17.3215 31.0596C-18.2115 37.1525 -18.4704 38.3951 -18.523 69.5171C-18.5432 79.891 -18.523 93.544 -18.523 111.857C-18.523 166.212 -18.4623 182.106 -18.1993 185.192C-17.2891 196.055 -15.5697 202.89 -11.9287 210.366C-4.97034 224.676 8.31935 235.419 23.9757 239.427C29.3968 240.81 35.3842 241.572 43.0708 241.932C46.3275 242.073 79.5213 242.173 112.735 242.173C145.95 242.173 179.164 242.133 182.339 241.973C191.24 241.558 196.408 240.87 202.122 239.407C217.88 235.379 230.927 224.796 238.027 210.285C241.597 202.99 243.407 195.895 244.227 185.599C244.405 183.354 244.479 147.564 244.479 111.823C244.479 76.075 244.398 40.3512 244.22 38.1065C243.391 27.6443 241.581 20.6094 237.895 13.1736C234.871 7.08675 231.513 2.54111 226.638 -2.10674C217.938 -10.3402 207.299 -15.3508 194.62 -17.1626C188.477 -18.0425 187.253 -18.3031 155.819 -18.3572H113.017Z" fill="url(#paint1_radial_8_37)"/>
</g>
<defs>
<radialGradient id="paint0_radial_8_37" cx="0" cy="0" r="1" gradientUnits="userSpaceOnUse" gradientTransform="translate(51.3307 262.239) rotate(-90) scale(258.205 242.438)">
<stop stop-color="#FFDD55"/>
<stop offset="0.1" stop-color="#FFDD55"/>
<stop offset="0.5" stop-color="#FF543E"/>
<stop offset="1" stop-color="#C837AB"/>
</radialGradient>
<radialGradient id="paint1_radial_8_37" cx="0" cy="0" r="1" gradientUnits="userSpaceOnUse" gradientTransform="translate(-62.5878 0.410976) rotate(78.5757) scale(115.461 480.114)">
<stop stop-color="#3771C8"/>
<stop offset="0.128" stop-color="#3771C8"/>
<stop offset="1" stop-color="#6600FF" stop-opacity="0"/>
</radialGradient>
</defs>
</svg>
